<svg xmlns="http://www.w3.org/2000/svg" width="70.183" height="71.106" viewBox="0 0 70.183 71.106"><g transform="translate(0)"><path d="M14.051,58.277A37.837,37.837,0,0,1,43,51.569a3.51,3.51,0,0,0,4.089-3.461V6.006a3.511,3.511,0,0,0-2.928-3.461,45.739,45.739,0,0,0-7.6-.678A45.2,45.2,0,0,0,12,9.084V58.939A3.506,3.506,0,0,0,14.051,58.277Z" transform="translate(23.092 -1.867)" fill="#f9e5f9"/><path d="M12.526,1.867a45.729,45.729,0,0,0-7.6.678A3.511,3.511,0,0,0,2,6.006v42.1a3.51,3.51,0,0,0,4.089,3.461,38.618,38.618,0,0,1,6.436-.582,38.3,38.3,0,0,1,22.509,7.291,3.506,3.506,0,0,0,2.051.661V9.084A45.2,45.2,0,0,0,12.526,1.867Z" transform="translate(-1.994 -1.867)" fill="#240127"/><path d="M44.158,18.545a45.7,45.7,0,0,0-7.6-.679A45.2,45.2,0,0,0,12,25.084v7.752a3.507,3.507,0,0,0,2.051-.661A37.837,37.837,0,0,1,43,25.466a3.509,3.509,0,0,0,1.172-6.919Z" transform="translate(23.092 38.27)" fill="#f9e5f9"/><path d="M12.53,17.867a45.738,45.738,0,0,0-7.6.678l-.011,0a3.509,3.509,0,0,0,1.172,6.919,38.616,38.616,0,0,1,6.436-.582,38.3,38.3,0,0,1,22.509,7.291,3.506,3.506,0,0,0,2.051.661V25.084A45.2,45.2,0,0,0,12.53,17.867Z" transform="translate(-1.998 38.27)" fill="#240127"/></g></svg>