<svg xmlns="http://www.w3.org/2000/svg" width="82.539" height="70.158" viewBox="0 0 82.539 70.158"><g transform="translate(0 0)"><path d="M72.158,73.658H14.381A12.394,12.394,0,0,1,2,61.277V28.262A12.394,12.394,0,0,1,14.381,15.881h5.28l1.3-3.917A12.37,12.37,0,0,1,32.71,3.5H53.829a12.37,12.37,0,0,1,11.746,8.463l1.3,3.917h5.28A12.394,12.394,0,0,1,84.539,28.262V61.277A12.394,12.394,0,0,1,72.158,73.658Z" transform="translate(-2 -3.5)" fill="#240127"/><path d="M24.508,41.516A16.508,16.508,0,1,1,41.016,25.008,16.508,16.508,0,0,1,24.508,41.516Z" transform="translate(16.762 12.135)" fill="#f9e5f9"/></g></svg>