<svg xmlns="http://www.w3.org/2000/svg" width="71.106" height="71.106" viewBox="0 0 71.106 71.106"><path d="M29.148,19.3H25.77a3.4,3.4,0,0,1,0-6.8h3.378a3.4,3.4,0,0,1,0,6.8Zm0,13.594H25.77a3.4,3.4,0,0,1,0-6.8h3.378a3.4,3.4,0,0,1,0,6.8ZM12.257,19.3H8.878a3.4,3.4,0,0,1,0-6.8h3.378a3.4,3.4,0,0,1,0,6.8Zm0,13.594H8.878a3.4,3.4,0,0,1,0-6.8h3.378a3.4,3.4,0,0,1,0,6.8ZM46.039,19.3H42.661a3.4,3.4,0,0,1,0-6.8h3.378a3.4,3.4,0,0,1,0,6.8Zm0,13.594H42.661a3.4,3.4,0,0,1,0-6.8h3.378a3.4,3.4,0,0,1,0,6.8Z" transform="translate(8.094 24.691)" fill="#240127"/><path d="M23.094,10.6H21.4V8.9a3.4,3.4,0,1,0-6.8,0v1.7H12.9a3.4,3.4,0,0,0,0,6.8h1.7v1.7a3.4,3.4,0,1,0,6.8,0V17.4h1.7a3.4,3.4,0,0,0,0-6.8Z" transform="translate(17.557 8.028)" fill="#240127"/><path d="M69.22,18.43H59.062V4.886A3.385,3.385,0,0,0,55.676,1.5H18.43a3.385,3.385,0,0,0-3.386,3.386V18.43H4.886A3.385,3.385,0,0,0,1.5,21.816v47.4a3.385,3.385,0,0,0,3.386,3.386H69.22a3.385,3.385,0,0,0,3.386-3.386v-47.4A3.385,3.385,0,0,0,69.22,18.43Zm-47.4,40.632H18.43a3.386,3.386,0,0,1,0-6.772h3.386a3.386,3.386,0,1,1,0,6.772Zm0-13.544H18.43a3.386,3.386,0,0,1,0-6.772h3.386a3.386,3.386,0,0,1,0,6.772Zm16.93,13.544H35.36a3.386,3.386,0,1,1,0-6.772h3.386a3.386,3.386,0,1,1,0,6.772Zm0-13.544H35.36a3.386,3.386,0,1,1,0-6.772h3.386a3.386,3.386,0,0,1,0,6.772ZM42.132,26.9H40.439v1.693a3.386,3.386,0,0,1-6.772,0V26.9H31.974a3.386,3.386,0,0,1,0-6.772h1.693V18.43a3.386,3.386,0,0,1,6.772,0v1.693h1.693a3.386,3.386,0,1,1,0,6.772ZM55.676,59.062H52.29a3.386,3.386,0,1,1,0-6.772h3.386a3.386,3.386,0,0,1,0,6.772Zm0-13.544H52.29a3.386,3.386,0,0,1,0-6.772h3.386a3.386,3.386,0,0,1,0,6.772Z" transform="translate(-1.5 -1.5)" fill="#f9e5f9"/></svg>