<svg xmlns="http://www.w3.org/2000/svg" width="77.174" height="70.158" viewBox="0 0 77.174 70.158"><g transform="translate(0)"><path d="M5,6V48.726a10.291,10.291,0,0,1,5.7-.412,10.558,10.558,0,0,1,8.248,8.937,10.092,10.092,0,0,1-.546,4.876H40.71a10.091,10.091,0,0,1-.546-4.876,10.558,10.558,0,0,1,8.248-8.937,10.291,10.291,0,0,1,5.7.412V6Z" transform="translate(9.032 8.032)" fill="#f9e5f9"/><path d="M71.158,2H8.016A7.016,7.016,0,0,0,1,9.016V30.063a7.016,7.016,0,0,0,7.016,7.016h7.016V16.032H64.142V37.079h7.016a7.016,7.016,0,0,0,7.016-7.016V9.016A7.016,7.016,0,0,0,71.158,2Z" transform="translate(-1 -2)" fill="#240127"/><path d="M19.524,30.047A10.524,10.524,0,1,1,30.047,19.524,10.524,10.524,0,0,1,19.524,30.047Z" transform="translate(19.063 15.555)" fill="#240127"/><path d="M10.7,18.223a10.293,10.293,0,0,0-5.7.412v6.385a7.036,7.036,0,0,0,7.016,7.016H18.4a10.089,10.089,0,0,0,.546-4.876A10.558,10.558,0,0,0,10.7,18.223Zm37.715,0a10.558,10.558,0,0,0-8.248,8.937,10.093,10.093,0,0,0,.546,4.876h6.384a7.036,7.036,0,0,0,7.016-7.016V18.635A10.293,10.293,0,0,0,48.413,18.223Z" transform="translate(9.032 38.123)" fill="#240127"/></g></svg>