<svg xmlns="http://www.w3.org/2000/svg" width="71.444" height="71.444" viewBox="0 0 71.444 71.444"><g transform="translate(0 0)"><path d="M62.728,73.444H12.717A10.728,10.728,0,0,1,2,62.728V12.717A10.728,10.728,0,0,1,12.717,2H62.728A10.728,10.728,0,0,1,73.444,12.717V62.728A10.728,10.728,0,0,1,62.728,73.444Z" transform="translate(-2 -2)" fill="#f9e5f9"/><path d="M33.005,30.578a3.57,3.57,0,0,1-1.982-.6l-8.735-5.822-8.735,5.822A3.572,3.572,0,0,1,8,27.005V5.572A3.57,3.57,0,0,1,11.572,2H33.005a3.57,3.57,0,0,1,3.572,3.572V27.005A3.572,3.572,0,0,1,33,30.578Z" transform="translate(13.433 -2)" fill="#240127"/></g></svg>