<svg xmlns="http://www.w3.org/2000/svg" width="66.366" height="66.366" viewBox="0 0 66.366 66.366"><path d="M56.146,5.511,43.911,17.746,19.429,9.585a3.774,3.774,0,0,0-3.862.912l-3.4,3.4A3.774,3.774,0,0,0,13.275,20l19.513,8.87L19.139,42.518a3.774,3.774,0,0,1-4.356.707L10.75,41.208a3.774,3.774,0,0,0-4.356.707L4.313,44a3.774,3.774,0,0,0,0,5.337L23.446,68.467a3.774,3.774,0,0,0,5.337,0l2.082-2.082a3.774,3.774,0,0,0,.707-4.356L29.556,58a3.774,3.774,0,0,1,.707-4.356L43.912,39.992,52.781,59.5a3.774,3.774,0,0,0,6.1,1.107l3.4-3.4a3.774,3.774,0,0,0,.912-3.862l-8.16-24.482L67.269,16.634a7.865,7.865,0,0,0,0-11.124h0a7.865,7.865,0,0,0-11.123,0Z" transform="translate(-3.207 -3.207)" fill="#240127"/></svg>