<svg xmlns="http://www.w3.org/2000/svg" width="69.264" height="69.24" viewBox="0 0 69.264 69.24"><g transform="translate(0 0)"><path d="M46.2,18.759a3.471,3.471,0,0,0-2.285-1.765L12.762,10.071A2.97,2.97,0,0,0,12,10v27.38H37.788a3.461,3.461,0,0,0,3.219-2.18l5.365-13.534A3.43,3.43,0,0,0,46.2,18.759Z" transform="translate(22.632 17.69)" fill="#f5c1f5"/><path d="M35.865,10.04,4.712,16.963a3.46,3.46,0,0,0-2.468,4.655L7.609,35.153a3.46,3.46,0,0,0,3.218,2.187H36.616v-27.3A3.48,3.48,0,0,0,35.865,10.04Z" transform="translate(-1.984 17.732)" fill="#f9e5f9"/><path d="M26.018,19.927a3.482,3.482,0,0,1,.75,0v-.081a2.956,2.956,0,0,1,.761.069l20.007,4.446V9.457A3.46,3.46,0,0,0,44.076,6H9.457A3.46,3.46,0,0,0,6,9.461V24.376Z" transform="translate(7.863 7.846)" fill="#240127"/><path d="M29.769,15.846V5.457A3.46,3.46,0,0,0,26.307,2H12.457A3.46,3.46,0,0,0,9,5.461V15.846Z" transform="translate(15.247 -2)" fill="#f9e5f9"/><path d="M13.451,29.125a13.62,13.62,0,0,1-7-1.93,8.86,8.86,0,0,0-1.967-.848A3.461,3.461,0,1,1,6.431,19.7l.033.01A15.581,15.581,0,0,1,9.99,21.245a7.148,7.148,0,0,0,7.244-.084,16.053,16.053,0,0,1,15.712.007,7.384,7.384,0,0,0,7.356,0,16.049,16.049,0,0,1,15.719-.01,7.154,7.154,0,0,0,7.247.084,15.489,15.489,0,0,1,3.522-1.531A3.461,3.461,0,1,1,68.8,26.336l-.033.01a8.764,8.764,0,0,0-1.964.848,14.013,14.013,0,0,1-14.2-.01,9.055,9.055,0,0,0-8.85-.014,14.3,14.3,0,0,1-14.265,0,9.059,9.059,0,0,0-8.843.017A14.622,14.622,0,0,1,13.451,29.125Z" transform="translate(-1.995 40.115)" fill="#240127"/></g></svg>