<svg xmlns="http://www.w3.org/2000/svg" width="72.054" height="72.054" viewBox="0 0 72.054 72.054"><path d="M59.643,38.027a14.376,14.376,0,0,1-10.808-4.89,14.389,14.389,0,0,1-21.616,0A14.4,14.4,0,0,1,2,23.616a3.627,3.627,0,0,1,.257-1.337L9.462,4.266A3.606,3.606,0,0,1,12.808,2H63.246a3.606,3.606,0,0,1,3.346,2.266L73.8,22.279a3.624,3.624,0,0,1,.257,1.337A14.426,14.426,0,0,1,59.643,38.027Z" transform="translate(-2 -2)" fill="#240127"/><path d="M54.438,15.533a14.377,14.377,0,0,1-10.808-4.89,14.389,14.389,0,0,1-20.306,1.31,14.406,14.406,0,0,1-1.31-1.31A14.4,14.4,0,0,1,4,13.6V47.959a3.6,3.6,0,0,0,3.6,3.6h50.44a3.6,3.6,0,0,0,3.6-3.6V13.528A14.279,14.279,0,0,1,54.438,15.533Z" transform="translate(3.205 20.494)" fill="#f9e5f9"/><path d="M30.616,42.822H9V17.6A3.6,3.6,0,0,1,12.6,14H27.014a3.6,3.6,0,0,1,3.6,3.6Z" transform="translate(16.219 29.233)" fill="#240127"/></svg>