<svg xmlns="http://www.w3.org/2000/svg" width="1920" height="1075.183" viewBox="0 0 1920 1075.183"><g opacity="0.05"><rect width="1920" height="1075" fill="none"/><rect width="38" height="38" transform="translate(77 77)" fill="#0c000d"/><path d="M40,40H59.187L40,59.187Z" transform="translate(36.796 36.796)" fill="#e69eee"/><path d="M50,40H69.2V59.187Z" transform="translate(46.004 36.796)" fill="#e69eee"/><path d="M59.187,50V69.2H40Z" transform="translate(36.796 46.004)" fill="#dc00f5"/><path d="M50,50,69.2,69.2H50Z" transform="translate(46.004 46.004)" fill="#dc00f5"/><rect width="38" height="38" transform="translate(269 77)" fill="#0c000d"/><path d="M140.005,40A19.191,19.191,0,0,1,159.2,59.187H140.005" transform="translate(128.804 36.796)" fill="#e69eee"/><path d="M150,59.187A19.191,19.191,0,0,1,169.192,40V59.187" transform="translate(137.999 36.796)" fill="#e69eee"/><path d="M140.005,69.2A19.191,19.191,0,0,0,159.2,50H140.005" transform="translate(128.804 46.004)" fill="#dc00f5"/><path d="M150,50A19.191,19.191,0,0,0,169.192,69.2V50" transform="translate(137.999 46.004)" fill="#dc00f5"/><rect width="38" height="38" transform="translate(461 77)" fill="#0c000d"/><path d="M240,40h19.191L240,59.187Z" transform="translate(220.799 36.796)" fill="#e69eee"/><path d="M250,40h19.191V59.187Z" transform="translate(229.994 36.796)" fill="#dc00f5"/><path d="M240,50,259.193,69.2H240Z" transform="translate(220.799 46.004)" fill="#dc00f5"/><path d="M269.188,50V69.2H250Z" transform="translate(229.994 46.004)" fill="#dc00f5"/><rect width="38" height="38" transform="translate(653 77)" fill="#0c000d"/><path d="M340,40a19.191,19.191,0,0,0,19.191,19.191V40" transform="translate(312.794 36.796)" fill="#e69eee"/><path d="M350.007,59.187A19.191,19.191,0,0,0,369.2,40H350.007" transform="translate(322.002 36.796)" fill="#e69eee"/><path d="M340,69.2A19.191,19.191,0,0,1,359.189,50V69.2" transform="translate(312.794 46.004)" fill="#e69eee"/><path d="M350.007,50A19.191,19.191,0,0,1,369.2,69.2H350.007" transform="translate(322.002 46.004)" fill="#dc00f5"/><rect width="38" height="38" transform="translate(845 77)" fill="#0c000d"/><path d="M440.007,40H459.2L440.007,59.187Z" transform="translate(404.802 36.796)" fill="#e69eee"/><path d="M450,40h19.191V59.187Z" transform="translate(413.998 36.796)" fill="#e69eee"/><path d="M459.2,50V69.2H440.007Z" transform="translate(404.802 46.004)" fill="#dc00f5"/><path d="M450,50,469.194,69.2H450Z" transform="translate(413.998 46.004)" fill="#dc00f5"/><rect width="38" height="38" transform="translate(1037 77)" fill="#0c000d"/><circle cx="9.5" cy="9.5" r="9.5" transform="translate(1037 77)" fill="#dc00f5"/><rect width="19" height="19" transform="translate(1056 77)" fill="#e69eee"/><circle cx="9.5" cy="9.5" r="9.5" transform="translate(1037 96)" fill="#e69eee"/><rect width="19" height="19" transform="translate(1056 96)" fill="#dc00f5"/><rect width="38" height="38" transform="translate(1229 77)" fill="#0c000d"/><path d="M640,40A19.191,19.191,0,0,0,659.19,59.187V40" transform="translate(588.792 36.796)" fill="#e69eee"/><path d="M650.009,59.187A19.191,19.191,0,0,0,669.2,40H650.009" transform="translate(598.001 36.796)" fill="#e69eee"/><path d="M640,69.2A19.191,19.191,0,0,1,659.19,50V69.2" transform="translate(588.792 46.004)" fill="#e69eee"/><path d="M650.009,50A19.191,19.191,0,0,1,669.2,69.2H650.009" transform="translate(598.001 46.004)" fill="#e69eee"/><rect width="38" height="38" transform="translate(1421 77)" fill="#0c000d"/><circle cx="9.5" cy="9.5" r="9.5" transform="translate(1421 77)" fill="#dc00f5"/><rect width="19" height="19" transform="translate(1440 77)" fill="#e69eee"/><circle cx="9.5" cy="9.5" r="9.5" transform="translate(1421 96)" fill="#dc00f5"/><rect width="19" height="19" transform="translate(1440 96)" fill="#e69eee"/><rect width="38" height="38" transform="translate(1613 77)" fill="#0c000d"/><path d="M840.005,59.187A19.191,19.191,0,0,1,859.2,40V59.187" transform="translate(772.796 36.796)" fill="#dc00f5"/><path d="M850,40a19.191,19.191,0,0,1,19.191,19.191H850" transform="translate(781.991 36.796)" fill="#dc00f5"/><path d="M840.005,50A19.191,19.191,0,0,0,859.2,69.2V50" transform="translate(772.796 46.004)" fill="#dc00f5"/><path d="M850,69.2A19.191,19.191,0,0,0,869.192,50H850" transform="translate(781.991 46.004)" fill="#dc00f5"/><rect width="38" height="38" transform="translate(1805 77)" fill="#0c000d"/><path d="M940,40h19.191L940,59.187Z" transform="translate(864.791 36.796)" fill="#e69eee"/><path d="M950.01,40H969.2V59.187Z" transform="translate(873.999 36.796)" fill="#dc00f5"/><path d="M959.192,50V69.2H940Z" transform="translate(864.791 46.004)" fill="#dc00f5"/><path d="M950.01,50,969.2,69.2H950.01Z" transform="translate(873.999 46.004)" fill="#dc00f5"/><rect width="38" height="38" transform="translate(77 269)" fill="#0c000d"/><path d="M40,159.2a19.191,19.191,0,0,1,19.191-19.191V159.2" transform="translate(36.796 128.804)" fill="#dc00f5"/><path d="M50,140.005A19.191,19.191,0,0,1,69.2,159.2H50" transform="translate(46.004 128.804)" fill="#e69eee"/><path d="M40,150a19.191,19.191,0,0,0,19.191,19.191V150" transform="translate(36.796 137.999)" fill="#dc00f5"/><path d="M50,169.192A19.191,19.191,0,0,0,69.2,150H50" transform="translate(46.004 137.999)" fill="#e69eee"/><rect width="38" height="38" transform="translate(269 269)" fill="#0c000d"/><circle cx="9.5" cy="9.5" r="9.5" transform="translate(269 269)" fill="#dc00f5"/><rect width="19" height="19" transform="translate(288 269)" fill="#e69eee"/><circle cx="9.5" cy="9.5" r="9.5" transform="translate(269 288)" fill="#dc00f5"/><rect width="19" height="19" transform="translate(288 288)" fill="#dc00f5"/><rect width="38" height="38" transform="translate(461 269)" fill="#0c000d"/><path d="M240,159.2a19.191,19.191,0,0,0,19.191-19.191H240" transform="translate(220.799 128.804)" fill="#dc00f5"/><path d="M250,140.005A19.191,19.191,0,0,0,269.188,159.2V140.005" transform="translate(229.994 128.804)" fill="#dc00f5"/><path d="M240,150a19.191,19.191,0,0,1,19.191,19.191H240" transform="translate(220.799 137.999)" fill="#e69eee"/><path d="M250,169.192A19.191,19.191,0,0,1,269.188,150v19.191" transform="translate(229.994 137.999)" fill="#e69eee"/><rect width="38" height="38" transform="translate(653 269)" fill="#0c000d"/><path d="M340,140.005A19.191,19.191,0,0,0,359.189,159.2V140.005" transform="translate(312.794 128.804)" fill="#e69eee"/><path d="M350.007,159.2A19.191,19.191,0,0,0,369.2,140.006H350.007" transform="translate(322.002 128.804)" fill="#e69eee"/><path d="M340,169.192A19.191,19.191,0,0,1,359.189,150v19.191" transform="translate(312.794 137.999)" fill="#dc00f5"/><path d="M350.007,150A19.191,19.191,0,0,1,369.2,169.192H350.007" transform="translate(322.002 137.999)" fill="#e69eee"/><rect width="38" height="38" transform="translate(845 269)" fill="#0c000d"/><path d="M440.007,140.005A19.191,19.191,0,0,1,459.2,159.2H440.007" transform="translate(404.802 128.804)" fill="#dc00f5"/><path d="M450,159.2a19.191,19.191,0,0,1,19.191-19.191V159.2" transform="translate(413.998 128.804)" fill="#e69eee"/><path d="M440.007,169.192A19.191,19.191,0,0,0,459.2,150H440.007" transform="translate(404.802 137.999)" fill="#e69eee"/><path d="M450,150a19.191,19.191,0,0,0,19.191,19.191V150" transform="translate(413.998 137.999)" fill="#dc00f5"/><rect width="38" height="38" transform="translate(1037 269)" fill="#0c000d"/><path d="M540,159.2a19.191,19.191,0,0,1,19.191-19.191V159.2" transform="translate(496.797 128.804)" fill="#e69eee"/><path d="M550,140.005A19.191,19.191,0,0,1,569.19,159.2H550" transform="translate(505.993 128.804)" fill="#e69eee"/><path d="M540,150a19.191,19.191,0,0,0,19.191,19.191V150" transform="translate(496.797 137.999)" fill="#e69eee"/><path d="M550,169.192A19.191,19.191,0,0,0,569.19,150H550" transform="translate(505.993 137.999)" fill="#dc00f5"/><rect width="38" height="38" transform="translate(1229 269)" fill="#0c000d"/><path d="M640,159.2a19.191,19.191,0,0,0,19.191-19.191H640" transform="translate(588.792 128.804)" fill="#dc00f5"/><path d="M650.009,140.005A19.191,19.191,0,0,0,669.2,159.2V140.005" transform="translate(598.001 128.804)" fill="#e69eee"/><path d="M640,150a19.191,19.191,0,0,1,19.191,19.191H640" transform="translate(588.792 137.999)" fill="#dc00f5"/><path d="M650.009,169.192A19.191,19.191,0,0,1,669.2,150v19.191" transform="translate(598.001 137.999)" fill="#dc00f5"/><rect width="38" height="38" transform="translate(1421 269)" fill="#0c000d"/><path d="M740.009,140.005A19.191,19.191,0,0,1,759.2,159.2H740.009" transform="translate(680.8 128.804)" fill="#e69eee"/><path d="M750,159.2A19.191,19.191,0,0,1,769.2,140.006V159.2" transform="translate(689.996 128.804)" fill="#e69eee"/><path d="M740.009,169.192A19.191,19.191,0,0,0,759.2,150H740.009" transform="translate(680.8 137.999)" fill="#e69eee"/><path d="M750,150A19.191,19.191,0,0,0,769.2,169.192V150" transform="translate(689.996 137.999)" fill="#dc00f5"/><rect width="38" height="38" transform="translate(1613 269)" fill="#0c000d"/><circle cx="9.5" cy="9.5" r="9.5" transform="translate(1613 269)" fill="#e69eee"/><rect width="19" height="19" transform="translate(1632 269)" fill="#dc00f5"/><circle cx="9.5" cy="9.5" r="9.5" transform="translate(1613 288)" fill="#dc00f5"/><rect width="19" height="19" transform="translate(1632 288)" fill="#e69eee"/><rect width="38" height="38" transform="translate(1805 269)" fill="#0c000d"/><path d="M940,140.005h19.191L940,159.2Z" transform="translate(864.791 128.804)" fill="#e69eee"/><path d="M969.2,140.005V159.2H950.01Z" transform="translate(873.999 128.804)" fill="#dc00f5"/><path d="M940,150h19.191v19.191Z" transform="translate(864.791 137.999)" fill="#e69eee"/><path d="M950.01,150,969.2,169.192H950.01Z" transform="translate(873.999 137.999)" fill="#e69eee"/><rect width="38" height="38" transform="translate(77 461)" fill="#0c000d"/><path d="M40,240H59.187L40,259.193Z" transform="translate(36.796 220.799)" fill="#dc00f5"/><path d="M50,240H69.2v19.191Z" transform="translate(46.004 220.799)" fill="#dc00f5"/><path d="M59.187,250v19.191H40Z" transform="translate(36.796 229.994)" fill="#e69eee"/><path d="M50,250,69.2,269.188H50Z" transform="translate(46.004 229.994)" fill="#e69eee"/><rect width="38" height="38" transform="translate(269 461)" fill="#0c000d"/><path d="M140.005,259.193A19.191,19.191,0,0,0,159.2,240H140.005" transform="translate(128.804 220.799)" fill="#e69eee"/><path d="M150,240a19.191,19.191,0,0,0,19.191,19.191V240" transform="translate(137.999 220.799)" fill="#dc00f5"/><path d="M140.005,250A19.191,19.191,0,0,1,159.2,269.188H140.005" transform="translate(128.804 229.994)" fill="#e69eee"/><path d="M150,269.188A19.191,19.191,0,0,1,169.192,250v19.191" transform="translate(137.999 229.994)" fill="#e69eee"/><rect width="38" height="38" transform="translate(461 461)" fill="#0c000d"/><circle cx="9.5" cy="9.5" r="9.5" transform="translate(461 461)" fill="#e69eee"/><rect width="19" height="19" transform="translate(480 461)" fill="#e69eee"/><circle cx="9.5" cy="9.5" r="9.5" transform="translate(461 480)" fill="#e69eee"/><rect width="19" height="19" transform="translate(480 480)" fill="#dc00f5"/><rect width="38" height="38" transform="translate(653 461)" fill="#0c000d"/><circle cx="9.5" cy="9.5" r="9.5" transform="translate(653 461)" fill="#dc00f5"/><rect width="19" height="19" transform="translate(672 461)" fill="#dc00f5"/><circle cx="9.5" cy="9.5" r="9.5" transform="translate(653 480)" fill="#e69eee"/><rect width="19" height="19" transform="translate(672 480)" fill="#dc00f5"/><rect width="38" height="38" transform="translate(845 461)" fill="#0c000d"/><path d="M440.007,240A19.191,19.191,0,0,0,459.2,259.193V240" transform="translate(404.802 220.799)" fill="#e69eee"/><path d="M450,259.193A19.191,19.191,0,0,0,469.194,240H450" transform="translate(413.998 220.799)" fill="#dc00f5"/><path d="M440.007,269.188A19.191,19.191,0,0,1,459.2,250v19.191" transform="translate(404.802 229.994)" fill="#dc00f5"/><path d="M450,250a19.191,19.191,0,0,1,19.191,19.191H450" transform="translate(413.998 229.994)" fill="#e69eee"/><rect width="38" height="38" transform="translate(1037 461)" fill="#0c000d"/><path d="M540,240h19.191L540,259.193Z" transform="translate(496.797 220.799)" fill="#dc00f5"/><path d="M550,240H569.19v19.191Z" transform="translate(505.993 220.799)" fill="#e69eee"/><path d="M540,250l19.191,19.191H540Z" transform="translate(496.797 229.994)" fill="#dc00f5"/><path d="M569.19,250v19.191H550Z" transform="translate(505.993 229.994)" fill="#e69eee"/><rect width="38" height="38" transform="translate(1229 461)" fill="#0c000d"/><path d="M640,240H659.19L640,259.193Z" transform="translate(588.792 220.799)" fill="#dc00f5"/><path d="M650.009,240H669.2v19.191Z" transform="translate(598.001 220.799)" fill="#e69eee"/><path d="M659.19,250v19.191H640Z" transform="translate(588.792 229.994)" fill="#e69eee"/><path d="M650.009,250,669.2,269.188H650.009Z" transform="translate(598.001 229.994)" fill="#e69eee"/><rect width="38" height="38" transform="translate(1421 461)" fill="#0c000d"/><path d="M740.009,240H759.2l-19.191,19.191Z" transform="translate(680.8 220.799)" fill="#dc00f5"/><path d="M769.2,240v19.191H750Z" transform="translate(689.996 220.799)" fill="#e69eee"/><path d="M740.009,250H759.2v19.191Z" transform="translate(680.8 229.994)" fill="#e69eee"/><path d="M750,250,769.2,269.188H750Z" transform="translate(689.996 229.994)" fill="#e69eee"/><rect width="38" height="38" transform="translate(1613 461)" fill="#0c000d"/><path d="M840.005,259.193A19.191,19.191,0,0,1,859.2,240v19.191" transform="translate(772.796 220.799)" fill="#dc00f5"/><path d="M850,240a19.191,19.191,0,0,1,19.191,19.191H850" transform="translate(781.991 220.799)" fill="#dc00f5"/><path d="M840.005,250A19.191,19.191,0,0,0,859.2,269.188V250" transform="translate(772.796 229.994)" fill="#dc00f5"/><path d="M850,269.188A19.191,19.191,0,0,0,869.192,250H850" transform="translate(781.991 229.994)" fill="#e69eee"/><rect width="38" height="38" transform="translate(1805 461)" fill="#0c000d"/><path d="M940,259.193A19.191,19.191,0,0,1,959.192,240v4.8A14.394,14.394,0,0,0,944.8,259.192" transform="translate(864.791 220.799)" fill="#e69eee"/><path d="M950.01,240A19.191,19.191,0,0,1,969.2,259.193h-4.8A14.393,14.393,0,0,0,950.01,244.8" transform="translate(873.999 220.799)" fill="#e69eee"/><path d="M940,250a19.191,19.191,0,0,0,19.191,19.191v-4.8A14.394,14.394,0,0,1,944.8,250" transform="translate(864.791 229.994)" fill="#dc00f5"/><path d="M950.01,269.188A19.191,19.191,0,0,0,969.2,250h-4.8A14.393,14.393,0,0,1,950.01,264.39" transform="translate(873.999 229.994)" fill="#dc00f5"/><rect width="38" height="38" transform="translate(77 653)" fill="#0c000d"/><path d="M40,340a19.191,19.191,0,0,0,19.191,19.191V340" transform="translate(36.796 312.794)" fill="#dc00f5"/><path d="M50,359.189A19.191,19.191,0,0,0,69.2,340H50" transform="translate(46.004 312.794)" fill="#dc00f5"/><path d="M40,369.2a19.191,19.191,0,0,1,19.191-19.191V369.2" transform="translate(36.796 322.002)" fill="#e69eee"/><path d="M50,350.007A19.191,19.191,0,0,1,69.2,369.2H50" transform="translate(46.004 322.002)" fill="#dc00f5"/><rect width="38" height="38" transform="translate(269 653)" fill="#0c000d"/><path d="M140.005,340H159.2l-19.191,19.191Z" transform="translate(128.804 312.794)" fill="#dc00f5"/><path d="M169.192,340v19.191H150Z" transform="translate(137.999 312.794)" fill="#e69eee"/><path d="M140.005,350.007H159.2V369.2Z" transform="translate(128.804 322.002)" fill="#e69eee"/><path d="M150,350.007,169.192,369.2H150Z" transform="translate(137.999 322.002)" fill="#e69eee"/><rect width="38" height="38" transform="translate(461 653)" fill="#0c000d"/><path d="M240,340a19.191,19.191,0,0,1,19.191,19.191H240" transform="translate(220.799 312.794)" fill="#e69eee"/><path d="M250,359.189A19.191,19.191,0,0,1,269.188,340v19.191" transform="translate(229.994 312.794)" fill="#e69eee"/><path d="M240,369.2a19.191,19.191,0,0,0,19.191-19.191H240" transform="translate(220.799 322.002)" fill="#dc00f5"/><path d="M250,350.007A19.191,19.191,0,0,0,269.188,369.2V350.007" transform="translate(229.994 322.002)" fill="#dc00f5"/><rect width="38" height="38" transform="translate(653 653)" fill="#0c000d"/><circle cx="9.5" cy="9.5" r="9.5" transform="translate(653 653)" fill="#e69eee"/><rect width="19" height="19" transform="translate(672 653)" fill="#e69eee"/><circle cx="9.5" cy="9.5" r="9.5" transform="translate(653 672)" fill="#dc00f5"/><rect width="19" height="19" transform="translate(672 672)" fill="#dc00f5"/><rect width="38" height="38" transform="translate(845 653)" fill="#0c000d"/><path d="M440.007,340H459.2l-19.191,19.191Z" transform="translate(404.802 312.794)" fill="#e69eee"/><path d="M469.194,340v19.191H450Z" transform="translate(413.998 312.794)" fill="#dc00f5"/><path d="M440.007,350.007H459.2V369.2Z" transform="translate(404.802 322.002)" fill="#dc00f5"/><path d="M450,350.007,469.194,369.2H450Z" transform="translate(413.998 322.002)" fill="#dc00f5"/><rect width="38" height="38" transform="translate(1037 653)" fill="#0c000d"/><path d="M540,340h19.191L540,359.189Z" transform="translate(496.797 312.794)" fill="#dc00f5"/><path d="M550,340H569.19v19.191Z" transform="translate(505.993 312.794)" fill="#e69eee"/><path d="M540,350.007,559.194,369.2H540Z" transform="translate(496.797 322.002)" fill="#e69eee"/><path d="M569.19,350.007V369.2H550Z" transform="translate(505.993 322.002)" fill="#e69eee"/><rect width="38" height="38" transform="translate(1229 653)" fill="#0c000d"/><path d="M640,340H659.19L640,359.189Z" transform="translate(588.792 312.794)" fill="#e69eee"/><path d="M669.2,340v19.191H650.009Z" transform="translate(598.001 312.794)" fill="#dc00f5"/><path d="M640,350.007H659.19V369.2Z" transform="translate(588.792 322.002)" fill="#e69eee"/><path d="M650.009,350.007,669.2,369.2H650.009Z" transform="translate(598.001 322.002)" fill="#dc00f5"/><rect width="38" height="38" transform="translate(1421 653)" fill="#0c000d"/><path d="M740.009,340H759.2l-19.191,19.191Z" transform="translate(680.8 312.794)" fill="#e69eee"/><path d="M750,340H769.2v19.191Z" transform="translate(689.996 312.794)" fill="#dc00f5"/><path d="M759.2,350.007V369.2H740.009Z" transform="translate(680.8 322.002)" fill="#dc00f5"/><path d="M750,350.007,769.2,369.2H750Z" transform="translate(689.996 322.002)" fill="#e69eee"/><rect width="38" height="38" transform="translate(1613 653)" fill="#0c000d"/><path d="M840.005,340H859.2l-19.191,19.191Z" transform="translate(772.796 312.794)" fill="#dc00f5"/><path d="M869.192,340v19.191H850Z" transform="translate(781.991 312.794)" fill="#dc00f5"/><path d="M840.005,350.007H859.2V369.2Z" transform="translate(772.796 322.002)" fill="#dc00f5"/><path d="M850,350.007,869.192,369.2H850Z" transform="translate(781.991 322.002)" fill="#e69eee"/><rect width="38" height="38" transform="translate(1805 653)" fill="#0c000d"/><path d="M940,359.189A19.191,19.191,0,0,1,959.192,340v4.8A14.394,14.394,0,0,0,944.8,359.188" transform="translate(864.791 312.794)" fill="#e69eee"/><path d="M950.01,340A19.191,19.191,0,0,1,969.2,359.189h-4.8A14.393,14.393,0,0,0,950.01,344.8" transform="translate(873.999 312.794)" fill="#e69eee"/><path d="M940,350.007A19.191,19.191,0,0,0,959.192,369.2v-4.8A14.393,14.393,0,0,1,944.8,350.007" transform="translate(864.791 322.002)" fill="#dc00f5"/><path d="M950.01,369.2A19.191,19.191,0,0,0,969.2,350.007h-4.8A14.393,14.393,0,0,1,950.01,364.4" transform="translate(873.999 322.002)" fill="#e69eee"/><rect width="38" height="38" transform="translate(77 845)" fill="#0c000d"/><path d="M40,440.007A19.191,19.191,0,0,0,59.187,459.2V440.007" transform="translate(36.796 404.802)" fill="#dc00f5"/><path d="M50,459.2A19.191,19.191,0,0,0,69.2,440.007H50" transform="translate(46.004 404.802)" fill="#e69eee"/><path d="M40,469.194A19.191,19.191,0,0,1,59.187,450v19.191" transform="translate(36.796 413.998)" fill="#e69eee"/><path d="M50,450A19.191,19.191,0,0,1,69.2,469.194H50" transform="translate(46.004 413.998)" fill="#dc00f5"/><rect width="38" height="38" transform="translate(269 845)" fill="#0c000d"/><path d="M140.005,459.2A19.191,19.191,0,0,1,159.2,440.007v4.8A14.393,14.393,0,0,0,144.8,459.2" transform="translate(128.804 404.802)" fill="#dc00f5"/><path d="M150,440.007A19.191,19.191,0,0,1,169.192,459.2h-4.8A14.393,14.393,0,0,0,150,444.805" transform="translate(137.999 404.802)" fill="#dc00f5"/><path d="M140.005,450A19.191,19.191,0,0,0,159.2,469.194v-4.8A14.393,14.393,0,0,1,144.8,450" transform="translate(128.804 413.998)" fill="#e69eee"/><path d="M150,469.194A19.191,19.191,0,0,0,169.192,450h-4.8A14.393,14.393,0,0,1,150,464.4" transform="translate(137.999 413.998)" fill="#e69eee"/><rect width="38" height="38" transform="translate(461 845)" fill="#0c000d"/><circle cx="9.5" cy="9.5" r="9.5" transform="translate(461 845)" fill="#dc00f5"/><rect width="19" height="19" transform="translate(480 845)" fill="#e69eee"/><circle cx="9.5" cy="9.5" r="9.5" transform="translate(461 864)" fill="#dc00f5"/><rect width="19" height="19" transform="translate(480 864)" fill="#e69eee"/><rect width="38" height="38" transform="translate(653 845)" fill="#0c000d"/><path d="M340,440.007h19.191L340,459.2Z" transform="translate(312.794 404.802)" fill="#e69eee"/><path d="M350.007,440.007H369.2V459.2Z" transform="translate(322.002 404.802)" fill="#dc00f5"/><path d="M359.189,450v19.191H340Z" transform="translate(312.794 413.998)" fill="#dc00f5"/><path d="M350.007,450,369.2,469.194H350.007Z" transform="translate(322.002 413.998)" fill="#e69eee"/><rect width="38" height="38" transform="translate(845 845)" fill="#0c000d"/><path d="M440.007,440.007H459.2L440.007,459.2Z" transform="translate(404.802 404.802)" fill="#dc00f5"/><path d="M450,440.007h19.191V459.2Z" transform="translate(413.998 404.802)" fill="#dc00f5"/><path d="M440.007,450,459.2,469.194H440.007Z" transform="translate(404.802 413.998)" fill="#e69eee"/><path d="M469.194,450v19.191H450Z" transform="translate(413.998 413.998)" fill="#dc00f5"/><rect width="38" height="38" transform="translate(1037 845)" fill="#0c000d"/><path d="M540,459.2a19.191,19.191,0,0,1,19.191-19.191v4.8A14.393,14.393,0,0,0,544.8,459.2" transform="translate(496.797 404.802)" fill="#dc00f5"/><path d="M550,440.007A19.191,19.191,0,0,1,569.19,459.2h-4.8A14.394,14.394,0,0,0,550,444.805" transform="translate(505.993 404.802)" fill="#e69eee"/><path d="M540,450a19.191,19.191,0,0,0,19.191,19.191v-4.8A14.393,14.393,0,0,1,544.8,450" transform="translate(496.797 413.998)" fill="#e69eee"/><path d="M550,469.194A19.191,19.191,0,0,0,569.19,450h-4.8A14.394,14.394,0,0,1,550,464.4" transform="translate(505.993 413.998)" fill="#dc00f5"/><rect width="38" height="38" transform="translate(1229 845)" fill="#0c000d"/><path d="M640,459.2a19.191,19.191,0,0,1,19.191-19.191v4.8A14.394,14.394,0,0,0,644.8,459.2" transform="translate(588.792 404.802)" fill="#e69eee"/><path d="M650.009,440.007A19.191,19.191,0,0,1,669.2,459.2h-4.8a14.393,14.393,0,0,0-14.393-14.393" transform="translate(598.001 404.802)" fill="#e69eee"/><path d="M640,450a19.191,19.191,0,0,0,19.191,19.191v-4.8A14.394,14.394,0,0,1,644.8,450" transform="translate(588.792 413.998)" fill="#e69eee"/><path d="M650.009,469.194A19.191,19.191,0,0,0,669.2,450h-4.8A14.393,14.393,0,0,1,650.009,464.4" transform="translate(598.001 413.998)" fill="#e69eee"/><rect width="38" height="38" transform="translate(1421 845)" fill="#0c000d"/><circle cx="9.5" cy="9.5" r="9.5" transform="translate(1421 845)" fill="#dc00f5"/><rect width="19" height="19" transform="translate(1440 845)" fill="#e69eee"/><circle cx="9.5" cy="9.5" r="9.5" transform="translate(1421 864)" fill="#dc00f5"/><rect width="19" height="19" transform="translate(1440 864)" fill="#dc00f5"/><rect width="38" height="38" transform="translate(1613 845)" fill="#0c000d"/><path d="M840.005,459.2A19.191,19.191,0,0,1,859.2,440.007V459.2" transform="translate(772.796 404.802)" fill="#e69eee"/><path d="M850,440.007A19.191,19.191,0,0,1,869.192,459.2H850" transform="translate(781.991 404.802)" fill="#dc00f5"/><path d="M840.005,450A19.191,19.191,0,0,0,859.2,469.194V450" transform="translate(772.796 413.998)" fill="#e69eee"/><path d="M850,469.194A19.191,19.191,0,0,0,869.192,450H850" transform="translate(781.991 413.998)" fill="#dc00f5"/><rect width="38" height="38" transform="translate(1805 845)" fill="#0c000d"/><path d="M940,440.007h19.191L940,459.2Z" transform="translate(864.791 404.802)" fill="#e69eee"/><path d="M950.01,440.007H969.2V459.2Z" transform="translate(873.999 404.802)" fill="#e69eee"/><path d="M940,450l19.191,19.191H940Z" transform="translate(864.791 413.998)" fill="#e69eee"/><path d="M969.2,450v19.191H950.01Z" transform="translate(873.999 413.998)" fill="#e69eee"/><rect width="38" height="38" transform="translate(77 1037)" fill="#0c000d"/><path d="M40,540a19.191,19.191,0,0,1,19.191,19.191H40" transform="translate(36.796 496.797)" fill="#e69eee"/><path d="M50,559.194A19.191,19.191,0,0,1,69.2,540v19.191" transform="translate(46.004 496.797)" fill="#e69eee"/><path d="M40,569.19A19.191,19.191,0,0,0,59.187,550H40" transform="translate(36.796 505.993)" fill="#dc00f5"/><path d="M50,550A19.191,19.191,0,0,0,69.2,569.19V550" transform="translate(46.004 505.993)" fill="#dc00f5"/><rect width="38" height="38" transform="translate(269 1037)" fill="#0c000d"/><path d="M140.005,540A19.191,19.191,0,0,1,159.2,559.194H140.005" transform="translate(128.804 496.797)" fill="#e69eee"/><path d="M150,559.194A19.191,19.191,0,0,1,169.192,540v19.191" transform="translate(137.999 496.797)" fill="#dc00f5"/><path d="M140.005,569.19A19.191,19.191,0,0,0,159.2,550H140.005" transform="translate(128.804 505.993)" fill="#dc00f5"/><path d="M150,550a19.191,19.191,0,0,0,19.191,19.191V550" transform="translate(137.999 505.993)" fill="#e69eee"/><rect width="38" height="38" transform="translate(461 1037)" fill="#0c000d"/><path d="M240,559.194A19.191,19.191,0,0,0,259.193,540H240" transform="translate(220.799 496.797)" fill="#dc00f5"/><path d="M250,540a19.191,19.191,0,0,0,19.191,19.191V540" transform="translate(229.994 496.797)" fill="#dc00f5"/><path d="M240,550a19.191,19.191,0,0,1,19.191,19.191H240" transform="translate(220.799 505.993)" fill="#dc00f5"/><path d="M250,569.19A19.191,19.191,0,0,1,269.188,550V569.19" transform="translate(229.994 505.993)" fill="#dc00f5"/><rect width="38" height="38" transform="translate(653 1037)" fill="#0c000d"/><path d="M340,540a19.191,19.191,0,0,0,19.191,19.191V540" transform="translate(312.794 496.797)" fill="#dc00f5"/><path d="M350.007,559.194A19.191,19.191,0,0,0,369.2,540H350.007" transform="translate(322.002 496.797)" fill="#e69eee"/><path d="M340,569.19A19.191,19.191,0,0,1,359.189,550V569.19" transform="translate(312.794 505.993)" fill="#dc00f5"/><path d="M350.007,550A19.191,19.191,0,0,1,369.2,569.19H350.007" transform="translate(322.002 505.993)" fill="#e69eee"/><rect width="38" height="38" transform="translate(845 1037)" fill="#0c000d"/><path d="M440.007,540H459.2l-19.191,19.191Z" transform="translate(404.802 496.797)" fill="#dc00f5"/><path d="M450,540h19.191v19.191Z" transform="translate(413.998 496.797)" fill="#dc00f5"/><path d="M440.007,550,459.2,569.19H440.007Z" transform="translate(404.802 505.993)" fill="#dc00f5"/><path d="M469.194,550V569.19H450Z" transform="translate(413.998 505.993)" fill="#dc00f5"/><rect width="38" height="38" transform="translate(1037 1037)" fill="#0c000d"/><path d="M540,540h19.191L540,559.194Z" transform="translate(496.797 496.797)" fill="#dc00f5"/><path d="M569.19,540v19.191H550Z" transform="translate(505.993 496.797)" fill="#dc00f5"/><path d="M540,550h19.191V569.19Z" transform="translate(496.797 505.993)" fill="#e69eee"/><path d="M550,550,569.19,569.19H550Z" transform="translate(505.993 505.993)" fill="#dc00f5"/><rect width="38" height="38" transform="translate(1229 1037)" fill="#0c000d"/><path d="M640,559.194A19.191,19.191,0,0,0,659.19,540H640" transform="translate(588.792 496.797)" fill="#e69eee"/><path d="M650.009,540A19.191,19.191,0,0,0,669.2,559.194V540" transform="translate(598.001 496.797)" fill="#dc00f5"/><path d="M640,550A19.191,19.191,0,0,1,659.19,569.19H640" transform="translate(588.792 505.993)" fill="#dc00f5"/><path d="M650.009,569.19A19.191,19.191,0,0,1,669.2,550V569.19" transform="translate(598.001 505.993)" fill="#dc00f5"/><rect width="38" height="38" transform="translate(1421 1037)" fill="#0c000d"/><path d="M740.009,540A19.191,19.191,0,0,0,759.2,559.194V540" transform="translate(680.8 496.797)" fill="#dc00f5"/><path d="M750,559.194A19.191,19.191,0,0,0,769.2,540H750" transform="translate(689.996 496.797)" fill="#e69eee"/><path d="M740.009,569.19A19.191,19.191,0,0,1,759.2,550V569.19" transform="translate(680.8 505.993)" fill="#e69eee"/><path d="M750,550A19.191,19.191,0,0,1,769.2,569.19H750" transform="translate(689.996 505.993)" fill="#dc00f5"/><rect width="38" height="38" transform="translate(1613 1037)" fill="#0c000d"/><path d="M840.005,540A19.191,19.191,0,0,1,859.2,559.194H840.005" transform="translate(772.796 496.797)" fill="#e69eee"/><path d="M850,559.194A19.191,19.191,0,0,1,869.192,540v19.191" transform="translate(781.991 496.797)" fill="#dc00f5"/><path d="M840.005,569.19A19.191,19.191,0,0,0,859.2,550H840.005" transform="translate(772.796 505.993)" fill="#e69eee"/><path d="M850,550a19.191,19.191,0,0,0,19.191,19.191V550" transform="translate(781.991 505.993)" fill="#e69eee"/><rect width="38" height="38" transform="translate(1805 1037)" fill="#0c000d"/><path d="M940,540h19.191L940,559.194Z" transform="translate(864.791 496.797)" fill="#e69eee"/><path d="M950.01,540H969.2v19.191Z" transform="translate(873.999 496.797)" fill="#e69eee"/><path d="M959.192,550V569.19H940Z" transform="translate(864.791 505.993)" fill="#e69eee"/><path d="M950.01,550,969.2,569.19H950.01Z" transform="translate(873.999 505.993)" fill="#e69eee"/></g></svg>